<?xml version="1.0" encoding="utf-8"?>
<!-- Generator: Adobe Illustrator 16.0.0, SVG Export Plug-In . SVG Version: 6.00 Build 0)  -->
<!DOCTYPE svg PUBLIC "-//W3C//DTD SVG 1.1//EN" "http://www.w3.org/Graphics/SVG/1.1/DTD/svg11.dtd">
<svg version="1.1" id="Layer_1" xmlns="http://www.w3.org/2000/svg" xmlns:xlink="http://www.w3.org/1999/xlink" x="0px" y="0px"
	 width="30px" height="30px" viewBox="0 0 30 30" enable-background="new 0 0 30 30" xml:space="preserve">
<g>
	<path fill="#0091a6" d="M14.999,1C22.718,1,28.998,7.279,29,15c-0.002,7.718-6.281,13.998-14,14C7.281,28.998,1,22.717,1,14.998
		C1.002,7.279,7.281,1,14.999,1 M14.999,0C6.715,0,0.002,6.715,0,14.998c0,8.285,6.715,15,15,15.002c8.283-0.002,14.998-6.717,15-15
		C29.998,6.715,23.285,0,14.999,0L14.999,0z"/>
	<polygon fill="#0091a6" points="13.287,21.998 12.58,21.291 18.87,15.002 12.572,8.705 13.279,7.998 20.283,15.002 	"/>
</g>
</svg>
